<?xml version="1.0" encoding="UTF-8" standalone="no"?>
<svg
   width="37"
   height="40"
   viewBox="0 0 37 40"
   fill="none"
   version="1.1"
   id="svg4"
   sodipodi:docname="play-button.svg"
   inkscape:version="1.1 (c68e22c387, 2021-05-23)"
   xmlns:inkscape="http://www.inkscape.org/namespaces/inkscape"
   xmlns:sodipodi="http://sodipodi.sourceforge.net/DTD/sodipodi-0.dtd"
   xmlns="http://www.w3.org/2000/svg"
   xmlns:svg="http://www.w3.org/2000/svg">
  <defs
     id="defs8" />
  <sodipodi:namedview
     id="namedview6"
     pagecolor="#ffffff"
     bordercolor="#666666"
     borderopacity="1.0"
     inkscape:pageshadow="2"
     inkscape:pageopacity="0.0"
     inkscape:pagecheckerboard="0"
     showgrid="false"
     inkscape:zoom="16.25"
     inkscape:cx="18.492308"
     inkscape:cy="20"
     inkscape:window-width="1920"
     inkscape:window-height="1023"
     inkscape:window-x="0"
     inkscape:window-y="0"
     inkscape:window-maximized="1"
     inkscape:current-layer="svg4" />
  <path
     fill-rule="evenodd"
     clip-rule="evenodd"
     d="M5.90051 7.40068C3.50884 10.5896 2 15.0408 2 20C2 24.9592 3.50884 29.4104 5.90051 32.5993C8.29194 35.7879 11.5193 37.6667 15 37.6667H22C25.4807 37.6667 28.7081 35.7879 31.0995 32.5993C33.4912 29.4104 35 24.9592 35 20C35 15.0408 33.4912 10.5896 31.0995 7.40068C28.7081 4.21211 25.4807 2.33334 22 2.33334H15C11.5193 2.33334 8.29194 4.21211 5.90051 7.40068ZM4.30051 6.20068C6.97608 2.63326 10.7487 0.333344 15 0.333344H22C26.2513 0.333344 30.0239 2.63326 32.6995 6.20068C35.3748 9.7678 37 14.6499 37 20C37 25.3501 35.3748 30.2322 32.6995 33.7993C30.0239 37.3668 26.2513 39.6667 22 39.6667H15C10.7487 39.6667 6.97608 37.3668 4.30051 33.7993C1.62516 30.2322 0 25.3501 0 20C0 14.6499 1.62516 9.7678 4.30051 6.20068Z"
     fill="black"
     id="path2" />
  <g
     style="fill:none"
     id="g19"
     transform="translate(15.737158,12.199987)">
    <path
       fill-rule="evenodd"
       clip-rule="evenodd"
       d="m 3.18464,1.2057 c 2e-5,2e-5 4e-5,4e-5 7e-5,6e-5 l 4.27953,4.07567 2e-5,2e-5 c 0.49366,0.47017 0.69027,1.13296 0.69027,1.71854 0,0.58559 -0.19661,1.24838 -0.69027,1.71855 l -2e-5,10e-6 -4.27953,4.07565 c -3e-5,0 -5e-5,10e-5 -7e-5,10e-5 C 2.8884,13.0764 2.52025,13.2541 2.11613,13.2825 1.71662,13.3105 1.34651,13.188 1.04738,12.9828 0.456637,12.5775 0.125,11.8538 0.125,11.0757 V 2.92426 C 0.125,2.14622 0.456637,1.42253 1.04738,1.0172 1.34651,0.811956 1.71662,0.689522 2.11613,0.717529 2.52025,0.745859 2.8884,0.923545 3.18464,1.2057 Z M 2.00115,2.49524 C 1.95052,2.55527 1.875,2.6889 1.875,2.92426 v 8.15144 c 0,0.2354 0.07552,0.369 0.12615,0.4291 L 6.25734,7.45132 c 10e-6,-10e-6 10e-6,-10e-6 2e-5,-2e-5 C 6.322,7.38972 6.40453,7.23346 6.40453,6.99999 c 0,-0.23346 -0.08253,-0.38973 -0.14717,-0.4513 -1e-5,-10e-6 -1e-5,-10e-6 -2e-5,-2e-5 z"
       fill="#000000"
       id="path10" />
  </g>
</svg>
