<?xml version="1.0" encoding="UTF-8" standalone="no"?>
<svg
   width="39"
   height="29"
   viewBox="0 0 39 29"
   fill="none"
   version="1.1"
   id="svg4"
   sodipodi:docname="stop-button.svg"
   inkscape:version="1.1 (c68e22c387, 2021-05-23)"
   xmlns:inkscape="http://www.inkscape.org/namespaces/inkscape"
   xmlns:sodipodi="http://sodipodi.sourceforge.net/DTD/sodipodi-0.dtd"
   xmlns="http://www.w3.org/2000/svg"
   xmlns:svg="http://www.w3.org/2000/svg">
  <defs
     id="defs8" />
  <sodipodi:namedview
     id="namedview6"
     pagecolor="#ffffff"
     bordercolor="#666666"
     borderopacity="1.0"
     inkscape:pageshadow="2"
     inkscape:pageopacity="0.0"
     inkscape:pagecheckerboard="0"
     showgrid="false"
     inkscape:zoom="22.413793"
     inkscape:cx="19.519231"
     inkscape:cy="14.5"
     inkscape:window-width="1920"
     inkscape:window-height="1023"
     inkscape:window-x="0"
     inkscape:window-y="0"
     inkscape:window-maximized="1"
     inkscape:current-layer="g19" />
  <path
     fill-rule="evenodd"
     clip-rule="evenodd"
     d="M14.5 2C7.59644 2 2 7.59644 2 14.5C2 21.4036 7.59644 27 14.5 27H24.5C31.4036 27 37 21.4036 37 14.5C37 7.59644 31.4036 2 24.5 2H14.5ZM0 14.5C0 6.49187 6.49187 0 14.5 0H24.5C32.5081 0 39 6.49187 39 14.5C39 22.5081 32.5081 29 24.5 29H14.5C6.49187 29 0 22.5081 0 14.5Z"
     fill="black"
     id="path2" />
  <g
     style="fill:none"
     id="g19"
     transform="translate(-0.41384615,8.9107692)">
    <path
       fill-rule="evenodd"
       clip-rule="evenodd"
       d="m 17.5,1.6965385 c -0.62132,0 -1.125,0.50368 -1.125,1.125 v 5 c 0,0.62132 0.50368,1.125 1.125,1.125 h 5 c 0.62132,0 1.125,-0.50368 1.125,-1.125 v -5 c 0,-0.62132 -0.50368,-1.125 -1.125,-1.125 z m -2.875,1.125 c 0,-1.58782 1.28718,-2.87500004 2.875,-2.87500004 h 5 c 1.58782,0 2.875,1.28718004 2.875,2.87500004 v 5 c 0,1.58782 -1.28718,2.8749995 -2.875,2.8749995 h -5 c -1.58782,0 -2.875,-1.2871795 -2.875,-2.8749995 z"
       fill="#000000"
       id="path10" />
  </g>
</svg>
