<svg width="84" height="30" viewBox="0 0 84 30" fill="none" xmlns="http://www.w3.org/2000/svg">
<path d="M2.85949 0.833858V8.90714H9.96025V11.4656H0V0.833858H2.85949Z" fill="black"/>
<path d="M13.7217 2.86165C13.2611 2.61529 13.0117 2.0278 13.0117 1.51611C13.0117 0.663298 13.7601 0 14.6813 0C15.4297 0 16.1782 0.530638 16.1782 1.53506C16.1782 1.72457 16.1398 1.87618 16.0439 2.0657L14.8924 4.60518L13.3187 4.30196L13.7217 2.86165Z" fill="black"/>
<path d="M29.2858 0.833858V3.39229H22.2426V4.79469H28.5757V7.35313H22.2426V8.85028H29.5353V11.4656H19.3831V0.833858H29.2858Z" fill="black"/>
<path d="M33.0089 0.833858H43.0267V3.39229H35.8684V5.02211H42.1823V7.58054H35.8684V11.4656H33.0089V0.833858Z" fill="black"/>
<path d="M46.2317 0.833858H56.2495V3.39229H49.0912V5.02211H55.4051V7.58054H49.0912V11.4656H46.2317V0.833858Z" fill="black"/>
<path d="M69.3763 0.833858V3.39229H62.3331V4.79469H68.6662V7.35313H62.3331V8.85028H69.6258V11.4656H59.4736V0.833858H69.3763Z" fill="black"/>
<path d="M84 0.833858V3.37334H79.8163V11.4656H76.9376V3.35439H72.7539V0.833858H84Z" fill="black"/>
<path d="M22.9719 22.8174C22.1659 21.6614 21.2447 21.055 19.5942 21.055C17.6943 21.055 16.4277 22.2489 16.4277 24.1251C16.4277 25.9823 17.7327 27.1952 19.5942 27.1952C21.2255 27.1952 22.2234 26.5888 22.9527 25.4517L25.1789 26.6835C24.085 28.6924 22.2042 29.6968 19.6326 29.6968C16.1782 29.6968 13.5874 27.5553 13.5874 24.1251C13.5874 20.7138 16.2358 18.5534 19.6326 18.5534C22.2426 18.5534 24.085 19.5768 25.1981 21.5666L22.9719 22.8174Z" fill="black"/>
<path d="M65.7875 18.7997C68.3783 18.7997 70.2783 20.5054 70.2783 23.0259C70.2783 25.5464 68.3783 27.1573 65.7875 27.1573H62.2755V29.4315H59.416V18.7997H65.7875ZM62.2947 24.5799H65.6724C66.6895 24.5799 67.3996 24.0682 67.3996 23.0259C67.3996 22.0025 66.6703 21.3771 65.6724 21.3771H62.2947V24.5799Z" fill="black"/>
<path d="M50.2426 30C47.9781 30 46.1165 28.5028 44.6964 27.3847C43.7368 26.6267 42.7389 25.717 41.645 24.6368L41.5106 24.5041C39.7642 22.7795 37.9602 20.9981 35.7724 20.3158C33.8725 19.7284 31.8574 20.5622 31.0706 22.2489C30.8595 22.7227 30.7443 23.2533 30.7443 23.765C30.7443 25.7738 32.3948 27.4037 34.4291 27.4037C35.9068 27.4037 37.231 26.5319 37.8259 25.2053L40.0905 26.1718C39.1117 28.3891 36.9047 29.8294 34.4482 29.8294C31.0514 29.8294 28.2879 27.1004 28.2879 23.746C28.2879 22.8743 28.4798 22.0025 28.8444 21.2066C30.1494 18.4018 33.4503 17.0183 36.5209 17.9659C39.2844 18.8187 41.3955 20.9223 43.2762 22.7606L43.4105 22.8932C44.4661 23.9356 45.3681 24.7505 46.27 25.4706C48.0356 26.892 49.3982 27.8585 50.9335 27.4605C52.5648 27.0436 53.793 25.5275 53.793 23.9166C53.793 21.9078 52.1426 20.2779 50.1083 20.2779C48.7649 20.2779 47.5175 20.9981 46.8842 22.1541L44.7347 20.9791C45.8286 19.0461 47.8821 17.8522 50.1275 17.8522C53.5243 17.8522 56.2879 20.5812 56.2879 23.9356C56.2879 26.6646 54.3112 29.1472 51.586 29.8294C51.1062 29.9431 50.6648 30 50.2426 30Z" fill="black"/>
</svg>
