<svg width="34" height="34" viewBox="0 0 34 34" fill="none" xmlns="http://www.w3.org/2000/svg">
<path d="M16.1433 22.1432C18.9838 22.1432 21.2866 19.8404 21.2866 16.9999C21.2866 14.1594 18.9838 11.8567 16.1433 11.8567C13.3028 11.8567 11.0001 14.1594 11.0001 16.9999C11.0001 19.8404 13.3028 22.1432 16.1433 22.1432Z" stroke="black" stroke-width="2"/>
<path d="M20.6482 20.6859L23.1055 23.1432" stroke="black" stroke-width="2"/>
<path d="M16.9622 1.85669H16.1433C7.77989 1.85669 1 8.63655 1 16.9999C1 25.3633 7.77989 32.1432 16.1433 32.1432H16.9622C25.3256 32.1432 32.1055 25.3633 32.1055 16.9999C32.1055 8.63655 25.3256 1.85669 16.9622 1.85669Z" stroke="black" stroke-width="2"/>
</svg>
